<svg xmlns="http://www.w3.org/2000/svg" xmlns:xlink="http://www.w3.org/1999/xlink" viewBox="0 0 195 73.1"><defs><style>.a{fill:url(#a);}.b{fill:url(#b);}.c{fill:#262728;}.d{fill:url(#c);}</style><linearGradient id="a" x1="0.51" y1="21.04" x2="74.35" y2="80.02" gradientUnits="userSpaceOnUse"><stop offset="0.12" stop-color="#f19224"/><stop offset="0.78" stop-color="#eadba0"/></linearGradient><linearGradient id="b" x1="97.2" y1="15.75" x2="-4.21" y2="30.5" gradientUnits="userSpaceOnUse"><stop offset="0" stop-color="#26f0d6"/><stop offset="1" stop-color="#145fe5"/></linearGradient><linearGradient id="c" x1="93.98" y1="51.87" x2="195" y2="51.87" gradientUnits="userSpaceOnUse"><stop offset="0" stop-color="#145fe5"/><stop offset="1" stop-color="#26f0d6"/></linearGradient></defs><path class="a" d="M37.7,35.5V24.4H12.2A12.2,12.2,0,0,0,0,36.6H0A12.2,12.2,0,0,0,12.2,48.7H24.8V60.9A12.2,12.2,0,0,0,37,73.1h0A12.2,12.2,0,0,0,49.2,60.9V35.5Z"/><path class="b" d="M24.8,0H49.2A24.4,24.4,0,0,1,73.6,24.4v0A24.4,24.4,0,0,1,49.2,48.7H24.8a0,0,0,0,1,0,0V0a0,0,0,0,1,0,0Z"/><path class="c" d="M100.8,28.2V7.6H93.4V4.2h18.5V7.6h-7.4V28.2Z"/><path class="c" d="M115.3,28.2V4.2h3.5v9.5h.6a5.3,5.3,0,0,1,1-1.2,4.2,4.2,0,0,1,1.7-1.1,8.9,8.9,0,0,1,2.6-.4,6.4,6.4,0,0,1,3.4.9,6.9,6.9,0,0,1,2.4,2.4,8.9,8.9,0,0,1,.8,3.8V28.2h-3.5V18.4a4.5,4.5,0,0,0-1.1-3.3,4,4,0,0,0-3-1,4.2,4.2,0,0,0-3.5,1.4,6.1,6.1,0,0,0-1.4,4.2v8.5Z"/><path class="c" d="M144.1,28.7a8.7,8.7,0,0,1-4.4-1.1,7.2,7.2,0,0,1-3-3,8.7,8.7,0,0,1-1.1-4.6v-.4a9.5,9.5,0,0,1,1-4.6,7.5,7.5,0,0,1,3-3.1,9,9,0,0,1,4.4-1.1,8.6,8.6,0,0,1,4.3,1.1,6.8,6.8,0,0,1,2.8,3,9.4,9.4,0,0,1,1.1,4.5v1.3h-13a4.6,4.6,0,0,0,1.5,3.6,4.8,4.8,0,0,0,3.5,1.3,4.5,4.5,0,0,0,3-.9,7.4,7.4,0,0,0,1.6-2l2.9,1.5a10.5,10.5,0,0,1-1.4,2,7.6,7.6,0,0,1-2.4,1.8A8.3,8.3,0,0,1,144.1,28.7ZM139.2,18h9.4a4.7,4.7,0,0,0-1.4-3,4.7,4.7,0,0,0-3.2-1,5,5,0,0,0-3.3,1A5.4,5.4,0,0,0,139.2,18Z"/><path class="d" d="M94,68.8V34.2h14.2a13.4,13.4,0,0,1,5.8,1.3,10.6,10.6,0,0,1,3.9,3.7,11.5,11.5,0,0,1,1.4,5.7v.6a10.5,10.5,0,0,1-1.5,5.7,9.9,9.9,0,0,1-3.9,3.7,13.3,13.3,0,0,1-5.7,1.3h-7.7V68.8Zm6.5-18.6h7.1a5.5,5.5,0,0,0,3.7-1.2,4.6,4.6,0,0,0,1.5-3.6V45a4.6,4.6,0,0,0-1.5-3.6,5.5,5.5,0,0,0-3.7-1.2h-7.1Zm34.1,19.3a13.2,13.2,0,0,1-6.4-1.5,11.6,11.6,0,0,1-4.4-4.4,14.4,14.4,0,0,1-1.5-6.7v-.6a14.1,14.1,0,0,1,1.5-6.7,10.2,10.2,0,0,1,4.3-4.4,12.2,12.2,0,0,1,6.4-1.6,12.8,12.8,0,0,1,6.3,1.6,11.4,11.4,0,0,1,4.2,4.5,15.3,15.3,0,0,1,1.4,6.6v2.1H128.6a5.5,5.5,0,0,0,1.9,4.1,6,6,0,0,0,4.3,1.6,5.9,5.9,0,0,0,3.9-1.1,9.7,9.7,0,0,0,1.9-2.6l5,2.7a11.3,11.3,0,0,1-2,2.8,10.2,10.2,0,0,1-3.4,2.6A13.1,13.1,0,0,1,134.6,69.5Zm-6-15.7h11.5a4.9,4.9,0,0,0-1.7-3.5,6.1,6.1,0,0,0-3.9-1.2,6.2,6.2,0,0,0-4,1.2A6,6,0,0,0,128.6,53.8Zm23.4,15V44.3h6.1v2.8h.9a4.4,4.4,0,0,1,1.8-2.2,5.4,5.4,0,0,1,2.9-.7h3v5.5h-3.1a6.5,6.5,0,0,0-3.9,1.3,4.8,4.8,0,0,0-1.5,3.9V68.8Zm26.6.7a11.6,11.6,0,0,1-4.7-.9,7.3,7.3,0,0,1-3.3-2.7,7.2,7.2,0,0,1-1.2-4.2,7.5,7.5,0,0,1,1.2-4.3,6.8,6.8,0,0,1,3.4-2.5,12.2,12.2,0,0,1,4.9-.9h6.7V52.6a3.9,3.9,0,0,0-1.1-2.8,4.4,4.4,0,0,0-3.4-1.1,4.9,4.9,0,0,0-3.5,1,4.5,4.5,0,0,0-1.5,2.8l-5.7-2a9.6,9.6,0,0,1,1.9-3.4,8.5,8.5,0,0,1,3.5-2.5,12.4,12.4,0,0,1,5.4-1,11.4,11.4,0,0,1,7.6,2.4c1.9,1.7,2.8,4,2.8,7.1v9.1c0,1,.5,1.5,1.4,1.5h2v5.1h-4.2a4.9,4.9,0,0,1-3-.9,2.6,2.6,0,0,1-1.2-2.3h-.9a5.4,5.4,0,0,1-.9,1.6,6.7,6.7,0,0,1-2.2,1.7A9,9,0,0,1,178.6,69.5Zm1.1-5a6,6,0,0,0,4.2-1.5,4.8,4.8,0,0,0,1.7-3.9v-.5h-6.3a4.6,4.6,0,0,0-2.7.8,2.4,2.4,0,0,0-1,2.1,2.5,2.5,0,0,0,1.1,2.1A4.1,4.1,0,0,0,179.7,64.5Z"/><rect class="c" x="81.6" width="1.2" height="73.12" rx="0.6"/></svg>